<?xml version="1.0" encoding="UTF-8"?>
<svg width="2002px" height="500px" viewBox="0 0 2002 500" version="1.1" xmlns="http://www.w3.org/2000/svg" xmlns:xlink="http://www.w3.org/1999/xlink">
    <title>logo-roo</title>
    <g id="logo-roo" stroke="none" stroke-width="1" fill="none" fill-rule="evenodd">
        <g id="Group-2" transform="translate(0.000000, 51.000000)">
            <g id="Group">
                <path d="M159.746942,270.434813 L255.16376,175.017994 L310.823571,230.677805 L175.649745,365.851632 L48.4273198,238.629207 L88.1843276,198.872199 L159.746942,270.434813 Z M127.941335,159.115191 L175.649745,111.406782 L223.358154,159.115191 L175.649745,206.823601 L127.941335,159.115191 Z M48.4273198,79.6011756 L96.1357292,31.8927663 L151.79554,87.5525772 L104.087131,135.260987 L48.4273198,79.6011756 Z M199.503949,87.5525772 L263.115162,23.9413647 L310.823571,71.6497741 L247.212359,135.260987 L199.503949,87.5525772 Z" id="Shape" fill="#EDBB4A"></path>
                <path d="M16.7107337,80.1539144 L159.835962,223.279142 L222.865499,160.249605 L175.15709,112.541196 L183.093184,104.605101 L230.801593,152.313511 L302.685659,80.4294447 L239.074447,16.8182323 L112.096938,143.795741 L104.145536,135.84434 L151.762102,88.2277739 L80.1994883,16.6651599 L16.7107337,80.1539144 Z M238.752995,160.264912 L318.267011,239.778928 L159.545124,398.500814 L0.517093112,239.472783 L80.3372534,159.652623 L0.823237877,80.1386072 L80.184181,0.77766402 L159.698197,80.2916796 L239.05914,0.930736403 L318.573155,80.444752 L238.752995,160.264912 Z M159.851269,239.166638 L88.288655,167.604024 L16.404589,239.48809 L159.529817,382.613318 L302.379515,239.763621 L230.816901,168.201007 L159.851269,239.166638 Z" id="Shape" fill="#222222" fill-rule="nonzero"></path>
            </g>
            <g id="Group" transform="translate(841.000000, 0.000000)">
                <path d="M159.746942,270.434813 L255.16376,175.017994 L310.823571,230.677805 L175.649745,365.851632 L48.4273198,238.629207 L88.1843276,198.872199 L159.746942,270.434813 Z M127.941335,159.115191 L175.649745,111.406782 L223.358154,159.115191 L175.649745,206.823601 L127.941335,159.115191 Z M48.4273198,79.6011756 L96.1357292,31.8927663 L151.79554,87.5525772 L104.087131,135.260987 L48.4273198,79.6011756 Z M199.503949,87.5525772 L263.115162,23.9413647 L310.823571,71.6497741 L247.212359,135.260987 L199.503949,87.5525772 Z" id="Shape" fill="#004ADB"></path>
                <path d="M16.7107337,80.1539144 L159.835962,223.279142 L222.865499,160.249605 L175.15709,112.541196 L183.093184,104.605101 L230.801593,152.313511 L302.685659,80.4294447 L239.074447,16.8182323 L112.096938,143.795741 L104.145536,135.84434 L151.762102,88.2277739 L80.1994883,16.6651599 L16.7107337,80.1539144 Z M238.752995,160.264912 L318.267011,239.778928 L159.545124,398.500814 L0.517093112,239.472783 L80.3372534,159.652623 L0.823237877,80.1386072 L80.184181,0.77766402 L159.698197,80.2916796 L239.05914,0.930736403 L318.573155,80.444752 L238.752995,160.264912 Z M159.851269,239.166638 L88.288655,167.604024 L16.404589,239.48809 L159.529817,382.613318 L302.379515,239.763621 L230.816901,168.201007 L159.851269,239.166638 Z" id="Shape" fill="#222222" fill-rule="nonzero"></path>
            </g>
            <g id="Group" transform="translate(1262.000000, 0.000000)">
                <path d="M159.746942,270.434813 L255.16376,175.017994 L310.823571,230.677805 L175.649745,365.851632 L48.4273198,238.629207 L88.1843276,198.872199 L159.746942,270.434813 Z M127.941335,159.115191 L175.649745,111.406782 L223.358154,159.115191 L175.649745,206.823601 L127.941335,159.115191 Z M48.4273198,79.6011756 L96.1357292,31.8927663 L151.79554,87.5525772 L104.087131,135.260987 L48.4273198,79.6011756 Z M199.503949,87.5525772 L263.115162,23.9413647 L310.823571,71.6497741 L247.212359,135.260987 L199.503949,87.5525772 Z" id="Shape" fill="#E97055"></path>
                <path d="M16.7107337,80.1539144 L159.835962,223.279142 L222.865499,160.249605 L175.15709,112.541196 L183.093184,104.605101 L230.801593,152.313511 L302.685659,80.4294447 L239.074447,16.8182323 L112.096938,143.795741 L104.145536,135.84434 L151.762102,88.2277739 L80.1994883,16.6651599 L16.7107337,80.1539144 Z M238.752995,160.264912 L318.267011,239.778928 L159.545124,398.500814 L0.517093112,239.472783 L80.3372534,159.652623 L0.823237877,80.1386072 L80.184181,0.77766402 L159.698197,80.2916796 L239.05914,0.930736403 L318.573155,80.444752 L238.752995,160.264912 Z M159.851269,239.166638 L88.288655,167.604024 L16.404589,239.48809 L159.529817,382.613318 L302.379515,239.763621 L230.816901,168.201007 L159.851269,239.166638 Z" id="Shape" fill="#222222" fill-rule="nonzero"></path>
            </g>
            <g id="Group" transform="translate(1683.000000, 0.000000)">
                <path d="M159.746942,270.434813 L255.16376,175.017994 L310.823571,230.677805 L175.649745,365.851632 L48.4273198,238.629207 L88.1843276,198.872199 L159.746942,270.434813 Z M127.941335,159.115191 L175.649745,111.406782 L223.358154,159.115191 L175.649745,206.823601 L127.941335,159.115191 Z M48.4273198,79.6011756 L96.1357292,31.8927663 L151.79554,87.5525772 L104.087131,135.260987 L48.4273198,79.6011756 Z M199.503949,87.5525772 L263.115162,23.9413647 L310.823571,71.6497741 L247.212359,135.260987 L199.503949,87.5525772 Z" id="Shape" fill="#9013FE"></path>
                <path d="M16.7107337,80.1539144 L159.835962,223.279142 L222.865499,160.249605 L175.15709,112.541196 L183.093184,104.605101 L230.801593,152.313511 L302.685659,80.4294447 L239.074447,16.8182323 L112.096938,143.795741 L104.145536,135.84434 L151.762102,88.2277739 L80.1994883,16.6651599 L16.7107337,80.1539144 Z M238.752995,160.264912 L318.267011,239.778928 L159.545124,398.500814 L0.517093112,239.472783 L80.3372534,159.652623 L0.823237877,80.1386072 L80.184181,0.77766402 L159.698197,80.2916796 L239.05914,0.930736403 L318.573155,80.444752 L238.752995,160.264912 Z M159.851269,239.166638 L88.288655,167.604024 L16.404589,239.48809 L159.529817,382.613318 L302.379515,239.763621 L230.816901,168.201007 L159.851269,239.166638 Z" id="Shape" fill="#222222" fill-rule="nonzero"></path>
            </g>
            <g id="Group" transform="translate(421.000000, 0.000000)">
                <path d="M159.746942,270.434813 L255.16376,175.017994 L310.823571,230.677805 L175.649745,365.851632 L48.4273198,238.629207 L88.1843276,198.872199 L159.746942,270.434813 Z M127.941335,159.115191 L175.649745,111.406782 L223.358154,159.115191 L175.649745,206.823601 L127.941335,159.115191 Z M48.4273198,79.6011756 L96.1357292,31.8927663 L151.79554,87.5525772 L104.087131,135.260987 L48.4273198,79.6011756 Z M199.503949,87.5525772 L263.115162,23.9413647 L310.823571,71.6497741 L247.212359,135.260987 L199.503949,87.5525772 Z" id="Shape" fill="#71CBAF"></path>
                <path d="M16.7107337,80.1539144 L159.835962,223.279142 L222.865499,160.249605 L175.15709,112.541196 L183.093184,104.605101 L230.801593,152.313511 L302.685659,80.4294447 L239.074447,16.8182323 L112.096938,143.795741 L104.145536,135.84434 L151.762102,88.2277739 L80.1994883,16.6651599 L16.7107337,80.1539144 Z M238.752995,160.264912 L318.267011,239.778928 L159.545124,398.500814 L0.517093112,239.472783 L80.3372534,159.652623 L0.823237877,80.1386072 L80.184181,0.77766402 L159.698197,80.2916796 L239.05914,0.930736403 L318.573155,80.444752 L238.752995,160.264912 Z M159.851269,239.166638 L88.288655,167.604024 L16.404589,239.48809 L159.529817,382.613318 L302.379515,239.763621 L230.816901,168.201007 L159.851269,239.166638 Z" id="Shape" fill="#222222" fill-rule="nonzero"></path>
            </g>
        </g>
    </g>
</svg>